<svg width="32" height="32" viewBox="0 0 32 32" fill="none"  xmlns="http://www.w3.org/2000/svg">
    <path fill-rule="evenodd" clip-rule="evenodd" d="M19.9966 4.6665C20.1915 5.96296 19.6539 7.23134 18.947 8.13008C18.1895 9.09252 16.8843 9.83793 15.6235 9.79905C15.3929 8.55839 15.984 7.28173 16.7007 6.42079C17.4896 5.47238 18.8411 4.74497 19.9966 4.6665ZM23.794 22.9051C24.4455 21.9235 24.6881 21.4279 25.1943 20.3175C21.5164 18.9423 20.9253 13.7982 24.5653 11.8244C23.4542 10.4534 21.8951 9.66048 20.4242 9.66048C19.3617 9.66048 18.634 9.93297 17.9727 10.1806C17.422 10.3868 16.9173 10.5758 16.3038 10.5758C15.6407 10.5758 15.0534 10.3686 14.4382 10.1516C13.7615 9.91288 13.0512 9.66228 12.1692 9.66228C10.5154 9.66228 8.75673 10.6564 7.64195 12.3556C6.07304 14.7459 6.33889 19.2428 8.88273 23.0742C9.79247 24.4445 11.0074 25.9853 12.596 25.9997C13.2541 26.0057 13.6923 25.8125 14.1666 25.6033C14.71 25.3637 15.3008 25.1031 16.3238 25.0974C17.3525 25.092 17.9333 25.3554 18.4692 25.5984C18.9313 25.808 19.36 26.0025 20.0137 25.9965C21.6023 25.9821 22.8843 24.2753 23.794 22.9051Z" fill="#141724"/>
</svg>
